<mxfile host="app.diagrams.net" agent="Mozilla/5.0 (X11; Linux x86_64) AppleWebKit/537.36 (KHTML, like Gecko) Chrome/138.0.0.0 Safari/537.36" version="28.0.6">
  <diagram name="Page-1" id="g9GESWmZjxGjHMluQCLi">
    <mxGraphModel dx="22" dy="480" grid="1" gridSize="10" guides="1" tooltips="1" connect="1" arrows="1" fold="1" page="1" pageScale="1" pageWidth="850" pageHeight="1100" math="0" shadow="0">
      <root>
        <mxCell id="0" />
        <mxCell id="1" parent="0" />
        <mxCell id="p8CcwMDrvUb9Oq86cC-n-1" value="ทบทวนสัญลักษณ์" style="swimlane;fontFamily=Sarabun;fontSource=https://fonts.googleapis.com/css?family=Sarabun;" parent="1" vertex="1">
          <mxGeometry x="955" y="160" width="640" height="290" as="geometry" />
        </mxCell>
        <mxCell id="p8CcwMDrvUb9Oq86cC-n-2" value="&lt;font data-font-src=&quot;https://fonts.googleapis.com/css?family=Sarabun&quot; face=&quot;Sarabun&quot;&gt;เริ่มต้น&lt;/font&gt;" style="ellipse;whiteSpace=wrap;html=1;" parent="p8CcwMDrvUb9Oq86cC-n-1" vertex="1">
          <mxGeometry x="20" y="40" width="130" height="30" as="geometry" />
        </mxCell>
        <mxCell id="p8CcwMDrvUb9Oq86cC-n-3" value="" style="endArrow=classic;html=1;rounded=0;" parent="p8CcwMDrvUb9Oq86cC-n-1" edge="1">
          <mxGeometry width="50" height="50" relative="1" as="geometry">
            <mxPoint x="84.5" y="70" as="sourcePoint" />
            <mxPoint x="84.5" y="120" as="targetPoint" />
          </mxGeometry>
        </mxCell>
        <mxCell id="p8CcwMDrvUb9Oq86cC-n-4" value="&lt;font face=&quot;Sarabun&quot;&gt;สิ้นสุด&lt;/font&gt;" style="ellipse;whiteSpace=wrap;html=1;" parent="p8CcwMDrvUb9Oq86cC-n-1" vertex="1">
          <mxGeometry x="150" y="90" width="130" height="30" as="geometry" />
        </mxCell>
        <mxCell id="p8CcwMDrvUb9Oq86cC-n-5" value="" style="endArrow=classic;html=1;rounded=0;" parent="p8CcwMDrvUb9Oq86cC-n-1" edge="1">
          <mxGeometry width="50" height="50" relative="1" as="geometry">
            <mxPoint x="214.5" y="40" as="sourcePoint" />
            <mxPoint x="214.5" y="90" as="targetPoint" />
          </mxGeometry>
        </mxCell>
        <mxCell id="p8CcwMDrvUb9Oq86cC-n-6" value="กระบวนการ" style="rounded=0;whiteSpace=wrap;html=1;fontFamily=Sarabun;fontSource=https://fonts.googleapis.com/css?family=Sarabun;" parent="p8CcwMDrvUb9Oq86cC-n-1" vertex="1">
          <mxGeometry x="320" y="70" width="120" height="30" as="geometry" />
        </mxCell>
        <mxCell id="p8CcwMDrvUb9Oq86cC-n-7" value="" style="endArrow=classic;html=1;rounded=0;" parent="p8CcwMDrvUb9Oq86cC-n-1" edge="1">
          <mxGeometry width="50" height="50" relative="1" as="geometry">
            <mxPoint x="379" y="40" as="sourcePoint" />
            <mxPoint x="379.5" y="70" as="targetPoint" />
          </mxGeometry>
        </mxCell>
        <mxCell id="p8CcwMDrvUb9Oq86cC-n-8" value="" style="endArrow=classic;html=1;rounded=0;" parent="p8CcwMDrvUb9Oq86cC-n-1" edge="1">
          <mxGeometry width="50" height="50" relative="1" as="geometry">
            <mxPoint x="379.75" y="100" as="sourcePoint" />
            <mxPoint x="380.25" y="130" as="targetPoint" />
          </mxGeometry>
        </mxCell>
        <mxCell id="p8CcwMDrvUb9Oq86cC-n-9" value="ประโยคเงื่อนไข" style="rhombus;whiteSpace=wrap;html=1;fontFamily=Sarabun;fontSource=https://fonts.googleapis.com/css?family=Sarabun;" parent="p8CcwMDrvUb9Oq86cC-n-1" vertex="1">
          <mxGeometry x="490" y="60" width="100" height="60" as="geometry" />
        </mxCell>
        <mxCell id="p8CcwMDrvUb9Oq86cC-n-10" value="" style="endArrow=classic;html=1;rounded=0;" parent="p8CcwMDrvUb9Oq86cC-n-1" edge="1">
          <mxGeometry width="50" height="50" relative="1" as="geometry">
            <mxPoint x="539.71" y="30" as="sourcePoint" />
            <mxPoint x="540.21" y="60" as="targetPoint" />
          </mxGeometry>
        </mxCell>
        <mxCell id="p8CcwMDrvUb9Oq86cC-n-11" value="" style="endArrow=classic;html=1;rounded=0;" parent="p8CcwMDrvUb9Oq86cC-n-1" edge="1">
          <mxGeometry width="50" height="50" relative="1" as="geometry">
            <mxPoint x="539.71" y="120" as="sourcePoint" />
            <mxPoint x="540" y="175" as="targetPoint" />
          </mxGeometry>
        </mxCell>
        <mxCell id="p8CcwMDrvUb9Oq86cC-n-12" value="จริง" style="edgeLabel;html=1;align=center;verticalAlign=middle;resizable=0;points=[];fontFamily=Sarabun;fontSource=https://fonts.googleapis.com/css?family=Sarabun;" parent="p8CcwMDrvUb9Oq86cC-n-11" vertex="1" connectable="0">
          <mxGeometry x="-0.4142" y="-1" relative="1" as="geometry">
            <mxPoint as="offset" />
          </mxGeometry>
        </mxCell>
        <mxCell id="p8CcwMDrvUb9Oq86cC-n-13" value="" style="endArrow=classic;html=1;rounded=0;exitX=1;exitY=0.5;exitDx=0;exitDy=0;" parent="p8CcwMDrvUb9Oq86cC-n-1" source="p8CcwMDrvUb9Oq86cC-n-9" edge="1">
          <mxGeometry width="50" height="50" relative="1" as="geometry">
            <mxPoint x="620" y="95" as="sourcePoint" />
            <mxPoint x="610" y="175" as="targetPoint" />
            <Array as="points">
              <mxPoint x="610" y="90" />
            </Array>
          </mxGeometry>
        </mxCell>
        <mxCell id="p8CcwMDrvUb9Oq86cC-n-14" value="&lt;font data-font-src=&quot;https://fonts.googleapis.com/css?family=Sarabun&quot; face=&quot;Sarabun&quot;&gt;เท็จ&lt;/font&gt;" style="edgeLabel;html=1;align=center;verticalAlign=middle;resizable=0;points=[];" parent="p8CcwMDrvUb9Oq86cC-n-13" vertex="1" connectable="0">
          <mxGeometry x="-0.0019" y="-2" relative="1" as="geometry">
            <mxPoint as="offset" />
          </mxGeometry>
        </mxCell>
        <mxCell id="p8CcwMDrvUb9Oq86cC-n-15" value="&lt;font data-font-src=&quot;https://fonts.googleapis.com/css?family=Sarabun&quot; face=&quot;Sarabun&quot;&gt;ฟังก์ชัน/โมดูล&lt;/font&gt;" style="shape=process;whiteSpace=wrap;html=1;backgroundOutline=1;" parent="p8CcwMDrvUb9Oq86cC-n-1" vertex="1">
          <mxGeometry x="25" y="180" width="120" height="30" as="geometry" />
        </mxCell>
        <mxCell id="p8CcwMDrvUb9Oq86cC-n-16" value="" style="endArrow=classic;html=1;rounded=0;" parent="p8CcwMDrvUb9Oq86cC-n-1" edge="1">
          <mxGeometry width="50" height="50" relative="1" as="geometry">
            <mxPoint x="84.70999999999998" y="150" as="sourcePoint" />
            <mxPoint x="85.20999999999998" y="180" as="targetPoint" />
          </mxGeometry>
        </mxCell>
        <mxCell id="p8CcwMDrvUb9Oq86cC-n-17" value="" style="endArrow=classic;html=1;rounded=0;" parent="p8CcwMDrvUb9Oq86cC-n-1" edge="1">
          <mxGeometry width="50" height="50" relative="1" as="geometry">
            <mxPoint x="84.70999999999998" y="210" as="sourcePoint" />
            <mxPoint x="85.20999999999998" y="240" as="targetPoint" />
          </mxGeometry>
        </mxCell>
        <mxCell id="p8CcwMDrvUb9Oq86cC-n-18" value="" style="strokeWidth=2;html=1;shape=mxgraph.flowchart.start_2;whiteSpace=wrap;" parent="p8CcwMDrvUb9Oq86cC-n-1" vertex="1">
          <mxGeometry x="205" y="185" width="20" height="20" as="geometry" />
        </mxCell>
        <mxCell id="p8CcwMDrvUb9Oq86cC-n-19" value="" style="endArrow=classic;html=1;rounded=0;" parent="p8CcwMDrvUb9Oq86cC-n-1" edge="1">
          <mxGeometry width="50" height="50" relative="1" as="geometry">
            <mxPoint x="214.70999999999998" y="155" as="sourcePoint" />
            <mxPoint x="215.20999999999998" y="185" as="targetPoint" />
          </mxGeometry>
        </mxCell>
        <mxCell id="p8CcwMDrvUb9Oq86cC-n-20" value="" style="endArrow=classic;html=1;rounded=0;entryX=0;entryY=0.5;entryDx=0;entryDy=0;entryPerimeter=0;" parent="p8CcwMDrvUb9Oq86cC-n-1" target="p8CcwMDrvUb9Oq86cC-n-18" edge="1">
          <mxGeometry width="50" height="50" relative="1" as="geometry">
            <mxPoint x="189.99999999999997" y="155" as="sourcePoint" />
            <mxPoint x="190.49999999999997" y="185" as="targetPoint" />
            <Array as="points">
              <mxPoint x="190" y="180" />
            </Array>
          </mxGeometry>
        </mxCell>
        <mxCell id="p8CcwMDrvUb9Oq86cC-n-21" value="" style="endArrow=classic;html=1;rounded=0;entryX=1;entryY=0.5;entryDx=0;entryDy=0;entryPerimeter=0;" parent="p8CcwMDrvUb9Oq86cC-n-1" target="p8CcwMDrvUb9Oq86cC-n-18" edge="1">
          <mxGeometry width="50" height="50" relative="1" as="geometry">
            <mxPoint x="239.99999999999997" y="155" as="sourcePoint" />
            <mxPoint x="240.49999999999997" y="185" as="targetPoint" />
            <Array as="points">
              <mxPoint x="240" y="180" />
            </Array>
          </mxGeometry>
        </mxCell>
        <mxCell id="p8CcwMDrvUb9Oq86cC-n-22" value="" style="endArrow=classic;html=1;rounded=0;" parent="p8CcwMDrvUb9Oq86cC-n-1" edge="1">
          <mxGeometry width="50" height="50" relative="1" as="geometry">
            <mxPoint x="214.70999999999998" y="205" as="sourcePoint" />
            <mxPoint x="215.20999999999998" y="235" as="targetPoint" />
          </mxGeometry>
        </mxCell>
        <mxCell id="p8CcwMDrvUb9Oq86cC-n-23" value="&lt;font data-font-src=&quot;https://fonts.googleapis.com/css?family=Sarabun&quot; face=&quot;Sarabun&quot;&gt;ตัวเชื่อม&lt;/font&gt;" style="text;html=1;align=center;verticalAlign=middle;resizable=0;points=[];autosize=1;strokeColor=none;fillColor=none;" parent="p8CcwMDrvUb9Oq86cC-n-1" vertex="1">
          <mxGeometry x="220" y="190" width="60" height="30" as="geometry" />
        </mxCell>
        <mxCell id="p8CcwMDrvUb9Oq86cC-n-24" value="" style="endArrow=classic;html=1;rounded=0;" parent="p8CcwMDrvUb9Oq86cC-n-1" edge="1">
          <mxGeometry width="50" height="50" relative="1" as="geometry">
            <mxPoint x="353.71" y="165" as="sourcePoint" />
            <mxPoint x="354.21" y="195" as="targetPoint" />
          </mxGeometry>
        </mxCell>
        <mxCell id="p8CcwMDrvUb9Oq86cC-n-25" value="" style="verticalLabelPosition=bottom;verticalAlign=top;html=1;shape=offPageConnector;rounded=0;size=0.5;" parent="p8CcwMDrvUb9Oq86cC-n-1" vertex="1">
          <mxGeometry x="339" y="195" width="30" height="30" as="geometry" />
        </mxCell>
        <mxCell id="p8CcwMDrvUb9Oq86cC-n-26" value="" style="endArrow=classic;html=1;rounded=0;" parent="p8CcwMDrvUb9Oq86cC-n-1" edge="1">
          <mxGeometry width="50" height="50" relative="1" as="geometry">
            <mxPoint x="405.71" y="195" as="sourcePoint" />
            <mxPoint x="406.21" y="225" as="targetPoint" />
          </mxGeometry>
        </mxCell>
        <mxCell id="p8CcwMDrvUb9Oq86cC-n-27" value="" style="verticalLabelPosition=bottom;verticalAlign=top;html=1;shape=offPageConnector;rounded=0;size=0.5;" parent="p8CcwMDrvUb9Oq86cC-n-1" vertex="1">
          <mxGeometry x="391" y="165" width="30" height="30" as="geometry" />
        </mxCell>
        <mxCell id="p8CcwMDrvUb9Oq86cC-n-28" value="หน้าต่อไป" style="text;html=1;align=center;verticalAlign=middle;resizable=0;points=[];autosize=1;strokeColor=none;fillColor=none;fontFamily=Sarabun;fontSource=https://fonts.googleapis.com/css?family=Sarabun;" parent="p8CcwMDrvUb9Oq86cC-n-1" vertex="1">
          <mxGeometry x="345" y="220" width="70" height="30" as="geometry" />
        </mxCell>
        <mxCell id="p8CcwMDrvUb9Oq86cC-n-29" value="ก" style="text;html=1;align=center;verticalAlign=middle;resizable=0;points=[];autosize=1;strokeColor=none;fillColor=none;fontFamily=Sarabun;fontSource=https://fonts.googleapis.com/css?family=Sarabun;" parent="p8CcwMDrvUb9Oq86cC-n-1" vertex="1">
          <mxGeometry x="339" y="190" width="30" height="30" as="geometry" />
        </mxCell>
        <mxCell id="p8CcwMDrvUb9Oq86cC-n-30" value="ก" style="text;html=1;align=center;verticalAlign=middle;resizable=0;points=[];autosize=1;strokeColor=none;fillColor=none;fontFamily=Sarabun;fontSource=https://fonts.googleapis.com/css?family=Sarabun;" parent="p8CcwMDrvUb9Oq86cC-n-1" vertex="1">
          <mxGeometry x="391" y="160" width="30" height="30" as="geometry" />
        </mxCell>
        <mxCell id="p8CcwMDrvUb9Oq86cC-n-31" value="แสดงผล/รับค่า" style="shape=parallelogram;perimeter=parallelogramPerimeter;whiteSpace=wrap;html=1;fixedSize=1;fontFamily=Sarabun;fontSource=https://fonts.googleapis.com/css?family=Sarabun;" parent="p8CcwMDrvUb9Oq86cC-n-1" vertex="1">
          <mxGeometry x="450" y="210" width="120" height="30" as="geometry" />
        </mxCell>
        <mxCell id="p8CcwMDrvUb9Oq86cC-n-32" value="" style="endArrow=classic;html=1;rounded=0;" parent="p8CcwMDrvUb9Oq86cC-n-1" edge="1">
          <mxGeometry width="50" height="50" relative="1" as="geometry">
            <mxPoint x="509.71" y="180" as="sourcePoint" />
            <mxPoint x="510.21" y="210" as="targetPoint" />
          </mxGeometry>
        </mxCell>
        <mxCell id="p8CcwMDrvUb9Oq86cC-n-33" value="" style="endArrow=classic;html=1;rounded=0;" parent="p8CcwMDrvUb9Oq86cC-n-1" edge="1">
          <mxGeometry width="50" height="50" relative="1" as="geometry">
            <mxPoint x="509.71" y="240" as="sourcePoint" />
            <mxPoint x="510.21" y="270" as="targetPoint" />
          </mxGeometry>
        </mxCell>
        <mxCell id="p8CcwMDrvUb9Oq86cC-n-34" value="แก้ไขโจทย์ปัญหา" style="swimlane;fontFamily=Sarabun;fontSource=https://fonts.googleapis.com/css?family=Sarabun;" parent="1" vertex="1">
          <mxGeometry x="955" y="470" width="685" height="1000" as="geometry" />
        </mxCell>
        <mxCell id="p8CcwMDrvUb9Oq86cC-n-36" value="&lt;font face=&quot;Sarabun&quot;&gt;สิ้นสุด&lt;/font&gt;" style="ellipse;whiteSpace=wrap;html=1;" parent="p8CcwMDrvUb9Oq86cC-n-34" vertex="1">
          <mxGeometry x="255" y="840" width="130" height="30" as="geometry" />
        </mxCell>
        <mxCell id="_DsaDqCtvlCTjT93_nRn-6" style="edgeStyle=orthogonalEdgeStyle;rounded=0;orthogonalLoop=1;jettySize=auto;html=1;" edge="1" parent="p8CcwMDrvUb9Oq86cC-n-34" source="_DsaDqCtvlCTjT93_nRn-1">
          <mxGeometry relative="1" as="geometry">
            <mxPoint x="320" y="110" as="targetPoint" />
          </mxGeometry>
        </mxCell>
        <mxCell id="_DsaDqCtvlCTjT93_nRn-1" value="&lt;font data-font-src=&quot;https://fonts.googleapis.com/css?family=Sarabun&quot; face=&quot;Sarabun&quot;&gt;เริ่มต้น&lt;/font&gt;" style="ellipse;whiteSpace=wrap;html=1;" vertex="1" parent="p8CcwMDrvUb9Oq86cC-n-34">
          <mxGeometry x="255" y="50" width="130" height="30" as="geometry" />
        </mxCell>
        <mxCell id="_DsaDqCtvlCTjT93_nRn-7" style="edgeStyle=orthogonalEdgeStyle;rounded=0;orthogonalLoop=1;jettySize=auto;html=1;" edge="1" parent="p8CcwMDrvUb9Oq86cC-n-34" target="_DsaDqCtvlCTjT93_nRn-3">
          <mxGeometry relative="1" as="geometry">
            <mxPoint x="320" y="140" as="sourcePoint" />
          </mxGeometry>
        </mxCell>
        <mxCell id="_DsaDqCtvlCTjT93_nRn-15" style="edgeStyle=orthogonalEdgeStyle;rounded=0;orthogonalLoop=1;jettySize=auto;html=1;" edge="1" parent="p8CcwMDrvUb9Oq86cC-n-34" source="_DsaDqCtvlCTjT93_nRn-3" target="_DsaDqCtvlCTjT93_nRn-14">
          <mxGeometry relative="1" as="geometry" />
        </mxCell>
        <mxCell id="_DsaDqCtvlCTjT93_nRn-3" value="กรอกตัวเลข" style="rounded=0;whiteSpace=wrap;html=1;fontFamily=Sarabun;fontSource=https://fonts.googleapis.com/css?family=Sarabun;" vertex="1" parent="p8CcwMDrvUb9Oq86cC-n-34">
          <mxGeometry x="260" y="170" width="120" height="30" as="geometry" />
        </mxCell>
        <mxCell id="_DsaDqCtvlCTjT93_nRn-4" value="number % 2 == 1&lt;div&gt;หรือไม่&lt;/div&gt;" style="rhombus;whiteSpace=wrap;html=1;fontFamily=Sarabun;fontSource=https://fonts.googleapis.com/css?family=Sarabun;" vertex="1" parent="p8CcwMDrvUb9Oq86cC-n-34">
          <mxGeometry x="255" y="380" width="130" height="90" as="geometry" />
        </mxCell>
        <mxCell id="_DsaDqCtvlCTjT93_nRn-36" style="edgeStyle=orthogonalEdgeStyle;rounded=0;orthogonalLoop=1;jettySize=auto;html=1;" edge="1" parent="p8CcwMDrvUb9Oq86cC-n-34" source="_DsaDqCtvlCTjT93_nRn-11" target="_DsaDqCtvlCTjT93_nRn-33">
          <mxGeometry relative="1" as="geometry" />
        </mxCell>
        <mxCell id="_DsaDqCtvlCTjT93_nRn-48" value="จริง" style="edgeLabel;html=1;align=center;verticalAlign=middle;resizable=0;points=[];" vertex="1" connectable="0" parent="_DsaDqCtvlCTjT93_nRn-36">
          <mxGeometry x="0.6048" relative="1" as="geometry">
            <mxPoint as="offset" />
          </mxGeometry>
        </mxCell>
        <mxCell id="_DsaDqCtvlCTjT93_nRn-11" value="i &amp;lt;= number หรือไม่" style="rhombus;whiteSpace=wrap;html=1;fontFamily=Sarabun;fontSource=https://fonts.googleapis.com/css?family=Sarabun;" vertex="1" parent="p8CcwMDrvUb9Oq86cC-n-34">
          <mxGeometry x="485" y="530" width="130" height="90" as="geometry" />
        </mxCell>
        <mxCell id="_DsaDqCtvlCTjT93_nRn-27" style="edgeStyle=orthogonalEdgeStyle;rounded=0;orthogonalLoop=1;jettySize=auto;html=1;entryX=0.5;entryY=0;entryDx=0;entryDy=0;" edge="1" parent="p8CcwMDrvUb9Oq86cC-n-34" source="_DsaDqCtvlCTjT93_nRn-12" target="_DsaDqCtvlCTjT93_nRn-23">
          <mxGeometry relative="1" as="geometry" />
        </mxCell>
        <mxCell id="_DsaDqCtvlCTjT93_nRn-45" value="จริง" style="edgeLabel;html=1;align=center;verticalAlign=middle;resizable=0;points=[];" vertex="1" connectable="0" parent="_DsaDqCtvlCTjT93_nRn-27">
          <mxGeometry x="-0.6124" y="-1" relative="1" as="geometry">
            <mxPoint as="offset" />
          </mxGeometry>
        </mxCell>
        <mxCell id="_DsaDqCtvlCTjT93_nRn-12" value="i &amp;gt;= 0 หรือไม่" style="rhombus;whiteSpace=wrap;html=1;fontFamily=Sarabun;fontSource=https://fonts.googleapis.com/css?family=Sarabun;" vertex="1" parent="p8CcwMDrvUb9Oq86cC-n-34">
          <mxGeometry x="35" y="530" width="130" height="90" as="geometry" />
        </mxCell>
        <mxCell id="_DsaDqCtvlCTjT93_nRn-16" style="edgeStyle=orthogonalEdgeStyle;rounded=0;orthogonalLoop=1;jettySize=auto;html=1;entryX=0.5;entryY=0;entryDx=0;entryDy=0;" edge="1" parent="p8CcwMDrvUb9Oq86cC-n-34" source="_DsaDqCtvlCTjT93_nRn-14" target="_DsaDqCtvlCTjT93_nRn-4">
          <mxGeometry relative="1" as="geometry" />
        </mxCell>
        <mxCell id="_DsaDqCtvlCTjT93_nRn-50" style="edgeStyle=orthogonalEdgeStyle;rounded=0;orthogonalLoop=1;jettySize=auto;html=1;" edge="1" parent="p8CcwMDrvUb9Oq86cC-n-34" source="_DsaDqCtvlCTjT93_nRn-14" target="_DsaDqCtvlCTjT93_nRn-49">
          <mxGeometry relative="1" as="geometry" />
        </mxCell>
        <mxCell id="_DsaDqCtvlCTjT93_nRn-14" value="number เป็นค่าตัวเลขหรือไม่" style="rhombus;whiteSpace=wrap;html=1;fontFamily=Sarabun;fontSource=https://fonts.googleapis.com/css?family=Sarabun;" vertex="1" parent="p8CcwMDrvUb9Oq86cC-n-34">
          <mxGeometry x="255" y="250" width="130" height="90" as="geometry" />
        </mxCell>
        <mxCell id="_DsaDqCtvlCTjT93_nRn-42" style="edgeStyle=orthogonalEdgeStyle;rounded=0;orthogonalLoop=1;jettySize=auto;html=1;" edge="1" parent="p8CcwMDrvUb9Oq86cC-n-34" source="_DsaDqCtvlCTjT93_nRn-18" target="p8CcwMDrvUb9Oq86cC-n-36">
          <mxGeometry relative="1" as="geometry" />
        </mxCell>
        <mxCell id="_DsaDqCtvlCTjT93_nRn-18" value="" style="strokeWidth=2;html=1;shape=mxgraph.flowchart.start_2;whiteSpace=wrap;" vertex="1" parent="p8CcwMDrvUb9Oq86cC-n-34">
          <mxGeometry x="310" y="800" width="20" height="20" as="geometry" />
        </mxCell>
        <mxCell id="_DsaDqCtvlCTjT93_nRn-28" style="edgeStyle=orthogonalEdgeStyle;rounded=0;orthogonalLoop=1;jettySize=auto;html=1;entryX=0.5;entryY=0;entryDx=0;entryDy=0;" edge="1" parent="p8CcwMDrvUb9Oq86cC-n-34" source="_DsaDqCtvlCTjT93_nRn-23" target="_DsaDqCtvlCTjT93_nRn-24">
          <mxGeometry relative="1" as="geometry" />
        </mxCell>
        <mxCell id="_DsaDqCtvlCTjT93_nRn-23" value="แสดงค่าเลขคู่" style="rounded=0;whiteSpace=wrap;html=1;fontFamily=Sarabun;fontSource=https://fonts.googleapis.com/css?family=Sarabun;" vertex="1" parent="p8CcwMDrvUb9Oq86cC-n-34">
          <mxGeometry x="40" y="650" width="120" height="30" as="geometry" />
        </mxCell>
        <mxCell id="_DsaDqCtvlCTjT93_nRn-24" value="i = i - 2" style="rounded=0;whiteSpace=wrap;html=1;fontFamily=Sarabun;fontSource=https://fonts.googleapis.com/css?family=Sarabun;" vertex="1" parent="p8CcwMDrvUb9Oq86cC-n-34">
          <mxGeometry x="40" y="710" width="120" height="30" as="geometry" />
        </mxCell>
        <mxCell id="_DsaDqCtvlCTjT93_nRn-25" style="edgeStyle=orthogonalEdgeStyle;rounded=0;orthogonalLoop=1;jettySize=auto;html=1;entryX=1;entryY=0.5;entryDx=0;entryDy=0;" edge="1" parent="p8CcwMDrvUb9Oq86cC-n-34" source="_DsaDqCtvlCTjT93_nRn-4" target="_DsaDqCtvlCTjT93_nRn-67">
          <mxGeometry relative="1" as="geometry">
            <mxPoint x="180" y="425" as="targetPoint" />
          </mxGeometry>
        </mxCell>
        <mxCell id="_DsaDqCtvlCTjT93_nRn-43" value="เท็จ" style="edgeLabel;html=1;align=center;verticalAlign=middle;resizable=0;points=[];" vertex="1" connectable="0" parent="_DsaDqCtvlCTjT93_nRn-25">
          <mxGeometry x="-0.017" y="2" relative="1" as="geometry">
            <mxPoint as="offset" />
          </mxGeometry>
        </mxCell>
        <mxCell id="_DsaDqCtvlCTjT93_nRn-30" value="" style="strokeWidth=2;html=1;shape=mxgraph.flowchart.start_2;whiteSpace=wrap;" vertex="1" parent="p8CcwMDrvUb9Oq86cC-n-34">
          <mxGeometry x="310" y="565" width="20" height="20" as="geometry" />
        </mxCell>
        <mxCell id="_DsaDqCtvlCTjT93_nRn-31" style="edgeStyle=orthogonalEdgeStyle;rounded=0;orthogonalLoop=1;jettySize=auto;html=1;entryX=0;entryY=0.5;entryDx=0;entryDy=0;" edge="1" parent="p8CcwMDrvUb9Oq86cC-n-34" source="_DsaDqCtvlCTjT93_nRn-4" target="_DsaDqCtvlCTjT93_nRn-66">
          <mxGeometry relative="1" as="geometry">
            <mxPoint x="470" y="425" as="targetPoint" />
          </mxGeometry>
        </mxCell>
        <mxCell id="_DsaDqCtvlCTjT93_nRn-44" value="จริง" style="edgeLabel;html=1;align=center;verticalAlign=middle;resizable=0;points=[];" vertex="1" connectable="0" parent="_DsaDqCtvlCTjT93_nRn-31">
          <mxGeometry x="-0.3501" y="1" relative="1" as="geometry">
            <mxPoint as="offset" />
          </mxGeometry>
        </mxCell>
        <mxCell id="_DsaDqCtvlCTjT93_nRn-37" style="edgeStyle=orthogonalEdgeStyle;rounded=0;orthogonalLoop=1;jettySize=auto;html=1;" edge="1" parent="p8CcwMDrvUb9Oq86cC-n-34" source="_DsaDqCtvlCTjT93_nRn-33" target="_DsaDqCtvlCTjT93_nRn-34">
          <mxGeometry relative="1" as="geometry" />
        </mxCell>
        <mxCell id="_DsaDqCtvlCTjT93_nRn-33" value="แสดงค่าเลขคี่" style="rounded=0;whiteSpace=wrap;html=1;fontFamily=Sarabun;fontSource=https://fonts.googleapis.com/css?family=Sarabun;" vertex="1" parent="p8CcwMDrvUb9Oq86cC-n-34">
          <mxGeometry x="490" y="640" width="120" height="30" as="geometry" />
        </mxCell>
        <mxCell id="_DsaDqCtvlCTjT93_nRn-34" value="i = i + 2" style="rounded=0;whiteSpace=wrap;html=1;fontFamily=Sarabun;fontSource=https://fonts.googleapis.com/css?family=Sarabun;" vertex="1" parent="p8CcwMDrvUb9Oq86cC-n-34">
          <mxGeometry x="490" y="700" width="120" height="30" as="geometry" />
        </mxCell>
        <mxCell id="_DsaDqCtvlCTjT93_nRn-39" style="edgeStyle=orthogonalEdgeStyle;rounded=0;orthogonalLoop=1;jettySize=auto;html=1;entryX=0;entryY=0.5;entryDx=0;entryDy=0;entryPerimeter=0;" edge="1" parent="p8CcwMDrvUb9Oq86cC-n-34" source="_DsaDqCtvlCTjT93_nRn-12" target="_DsaDqCtvlCTjT93_nRn-30">
          <mxGeometry relative="1" as="geometry" />
        </mxCell>
        <mxCell id="_DsaDqCtvlCTjT93_nRn-46" value="เท็จ" style="edgeLabel;html=1;align=center;verticalAlign=middle;resizable=0;points=[];" vertex="1" connectable="0" parent="_DsaDqCtvlCTjT93_nRn-39">
          <mxGeometry x="-0.1991" relative="1" as="geometry">
            <mxPoint as="offset" />
          </mxGeometry>
        </mxCell>
        <mxCell id="_DsaDqCtvlCTjT93_nRn-40" style="edgeStyle=orthogonalEdgeStyle;rounded=0;orthogonalLoop=1;jettySize=auto;html=1;entryX=1;entryY=0.5;entryDx=0;entryDy=0;entryPerimeter=0;" edge="1" parent="p8CcwMDrvUb9Oq86cC-n-34" source="_DsaDqCtvlCTjT93_nRn-11" target="_DsaDqCtvlCTjT93_nRn-30">
          <mxGeometry relative="1" as="geometry" />
        </mxCell>
        <mxCell id="_DsaDqCtvlCTjT93_nRn-47" value="เท็จ" style="edgeLabel;html=1;align=center;verticalAlign=middle;resizable=0;points=[];" vertex="1" connectable="0" parent="_DsaDqCtvlCTjT93_nRn-40">
          <mxGeometry x="-0.1976" y="1" relative="1" as="geometry">
            <mxPoint as="offset" />
          </mxGeometry>
        </mxCell>
        <mxCell id="_DsaDqCtvlCTjT93_nRn-41" style="edgeStyle=orthogonalEdgeStyle;rounded=0;orthogonalLoop=1;jettySize=auto;html=1;entryX=0.5;entryY=0;entryDx=0;entryDy=0;entryPerimeter=0;" edge="1" parent="p8CcwMDrvUb9Oq86cC-n-34" source="_DsaDqCtvlCTjT93_nRn-30" target="_DsaDqCtvlCTjT93_nRn-18">
          <mxGeometry relative="1" as="geometry" />
        </mxCell>
        <mxCell id="_DsaDqCtvlCTjT93_nRn-49" value="&lt;font style=&quot;font-size: 8px;&quot;&gt;ให้แสดง&amp;nbsp;&lt;/font&gt;&lt;div&gt;&lt;div style=&quot;font-family: &amp;quot;Droid Sans Mono&amp;quot;, &amp;quot;monospace&amp;quot;, monospace; line-height: 19px; white-space: pre;&quot;&gt;&lt;span&gt;&lt;font style=&quot;color: rgb(0, 0, 0); font-size: 8px;&quot;&gt;please enter number only !!&lt;/font&gt;&lt;/span&gt;&lt;/div&gt;&lt;/div&gt;" style="rounded=0;whiteSpace=wrap;html=1;fontFamily=Sarabun;fontSource=https://fonts.googleapis.com/css?family=Sarabun;" vertex="1" parent="p8CcwMDrvUb9Oq86cC-n-34">
          <mxGeometry x="460" y="280" width="165" height="30" as="geometry" />
        </mxCell>
        <mxCell id="_DsaDqCtvlCTjT93_nRn-53" value="กำหนดค่า i = 0" style="rounded=0;whiteSpace=wrap;html=1;fontFamily=Sarabun;fontSource=https://fonts.googleapis.com/css?family=Sarabun;" vertex="1" parent="p8CcwMDrvUb9Oq86cC-n-34">
          <mxGeometry x="260" y="110" width="120" height="30" as="geometry" />
        </mxCell>
        <mxCell id="_DsaDqCtvlCTjT93_nRn-62" style="edgeStyle=orthogonalEdgeStyle;rounded=0;orthogonalLoop=1;jettySize=auto;html=1;entryX=1;entryY=0.5;entryDx=0;entryDy=0;entryPerimeter=0;" edge="1" parent="p8CcwMDrvUb9Oq86cC-n-34" source="_DsaDqCtvlCTjT93_nRn-49" target="_DsaDqCtvlCTjT93_nRn-18">
          <mxGeometry relative="1" as="geometry">
            <Array as="points">
              <mxPoint x="665" y="295" />
              <mxPoint x="665" y="810" />
            </Array>
          </mxGeometry>
        </mxCell>
        <mxCell id="_DsaDqCtvlCTjT93_nRn-73" value="" style="edgeStyle=orthogonalEdgeStyle;rounded=0;orthogonalLoop=1;jettySize=auto;html=1;" edge="1" parent="p8CcwMDrvUb9Oq86cC-n-34" source="_DsaDqCtvlCTjT93_nRn-66" target="_DsaDqCtvlCTjT93_nRn-69">
          <mxGeometry relative="1" as="geometry" />
        </mxCell>
        <mxCell id="_DsaDqCtvlCTjT93_nRn-66" value="กำหนดค่า i = 1" style="rounded=0;whiteSpace=wrap;html=1;fontFamily=Sarabun;fontSource=https://fonts.googleapis.com/css?family=Sarabun;" vertex="1" parent="p8CcwMDrvUb9Oq86cC-n-34">
          <mxGeometry x="490" y="410" width="120" height="30" as="geometry" />
        </mxCell>
        <mxCell id="_DsaDqCtvlCTjT93_nRn-74" value="" style="edgeStyle=orthogonalEdgeStyle;rounded=0;orthogonalLoop=1;jettySize=auto;html=1;" edge="1" parent="p8CcwMDrvUb9Oq86cC-n-34" source="_DsaDqCtvlCTjT93_nRn-67" target="_DsaDqCtvlCTjT93_nRn-68">
          <mxGeometry relative="1" as="geometry" />
        </mxCell>
        <mxCell id="_DsaDqCtvlCTjT93_nRn-67" value="กำหนดค่า i = number" style="rounded=0;whiteSpace=wrap;html=1;fontFamily=Sarabun;fontSource=https://fonts.googleapis.com/css?family=Sarabun;" vertex="1" parent="p8CcwMDrvUb9Oq86cC-n-34">
          <mxGeometry x="40" y="410" width="120" height="30" as="geometry" />
        </mxCell>
        <mxCell id="_DsaDqCtvlCTjT93_nRn-71" value="" style="edgeStyle=orthogonalEdgeStyle;rounded=0;orthogonalLoop=1;jettySize=auto;html=1;" edge="1" parent="p8CcwMDrvUb9Oq86cC-n-34" source="_DsaDqCtvlCTjT93_nRn-68" target="_DsaDqCtvlCTjT93_nRn-12">
          <mxGeometry relative="1" as="geometry" />
        </mxCell>
        <mxCell id="_DsaDqCtvlCTjT93_nRn-68" value="" style="strokeWidth=2;html=1;shape=mxgraph.flowchart.start_2;whiteSpace=wrap;" vertex="1" parent="p8CcwMDrvUb9Oq86cC-n-34">
          <mxGeometry x="90" y="482" width="20" height="20" as="geometry" />
        </mxCell>
        <mxCell id="_DsaDqCtvlCTjT93_nRn-72" value="" style="edgeStyle=orthogonalEdgeStyle;rounded=0;orthogonalLoop=1;jettySize=auto;html=1;" edge="1" parent="p8CcwMDrvUb9Oq86cC-n-34" source="_DsaDqCtvlCTjT93_nRn-69" target="_DsaDqCtvlCTjT93_nRn-11">
          <mxGeometry relative="1" as="geometry" />
        </mxCell>
        <mxCell id="_DsaDqCtvlCTjT93_nRn-69" value="" style="strokeWidth=2;html=1;shape=mxgraph.flowchart.start_2;whiteSpace=wrap;" vertex="1" parent="p8CcwMDrvUb9Oq86cC-n-34">
          <mxGeometry x="540" y="482" width="20" height="20" as="geometry" />
        </mxCell>
        <mxCell id="_DsaDqCtvlCTjT93_nRn-75" style="edgeStyle=orthogonalEdgeStyle;rounded=0;orthogonalLoop=1;jettySize=auto;html=1;entryX=0;entryY=0.5;entryDx=0;entryDy=0;entryPerimeter=0;" edge="1" parent="p8CcwMDrvUb9Oq86cC-n-34" source="_DsaDqCtvlCTjT93_nRn-24" target="_DsaDqCtvlCTjT93_nRn-68">
          <mxGeometry relative="1" as="geometry">
            <Array as="points">
              <mxPoint x="100" y="760" />
              <mxPoint x="15" y="760" />
              <mxPoint x="15" y="492" />
            </Array>
          </mxGeometry>
        </mxCell>
        <mxCell id="_DsaDqCtvlCTjT93_nRn-76" style="edgeStyle=orthogonalEdgeStyle;rounded=0;orthogonalLoop=1;jettySize=auto;html=1;entryX=1;entryY=0.5;entryDx=0;entryDy=0;entryPerimeter=0;" edge="1" parent="p8CcwMDrvUb9Oq86cC-n-34" source="_DsaDqCtvlCTjT93_nRn-34" target="_DsaDqCtvlCTjT93_nRn-69">
          <mxGeometry relative="1" as="geometry">
            <Array as="points">
              <mxPoint x="550" y="750" />
              <mxPoint x="645" y="750" />
              <mxPoint x="645" y="492" />
            </Array>
          </mxGeometry>
        </mxCell>
      </root>
    </mxGraphModel>
  </diagram>
</mxfile>
